<mxfile host="app.diagrams.net" modified="2022-07-21T03:40:57.497Z" agent="5.0 (Macintosh)" etag="Yez2Y9_rGEHYLkzRaRx1" version="20.0.3" type="github">
  <diagram id="PCE04gKSIc9GarCxbXwr" name="Page-1">
    <mxGraphModel dx="424" dy="1091" grid="1" gridSize="10" guides="1" tooltips="1" connect="1" arrows="1" fold="1" page="1" pageScale="1" pageWidth="827" pageHeight="1169" math="0" shadow="0">
      <root>
        <mxCell id="0" />
        <mxCell id="1" parent="0" />
        <mxCell id="QBfM4OdrTJ3WQ4Gd_CfI-7" value="" style="edgeStyle=orthogonalEdgeStyle;rounded=0;orthogonalLoop=1;jettySize=auto;html=1;fontFamily=Times New Roman;fontSize=12;" edge="1" parent="1" source="QBfM4OdrTJ3WQ4Gd_CfI-1" target="QBfM4OdrTJ3WQ4Gd_CfI-4">
          <mxGeometry relative="1" as="geometry" />
        </mxCell>
        <mxCell id="QBfM4OdrTJ3WQ4Gd_CfI-1" value="&lt;div style=&quot;color: rgb(0, 0, 0); background-color: rgb(255, 255, 254); font-size: 12px;&quot;&gt;&lt;div style=&quot;font-size: 12px;&quot;&gt;&lt;span style=&quot;color: rgb(163, 21, 21); font-size: 12px;&quot;&gt;vgds.dwd_autolabel_road_info&lt;/span&gt;&lt;/div&gt;&lt;/div&gt;" style="rounded=0;whiteSpace=wrap;html=1;fontFamily=Times New Roman;fontSize=12;" vertex="1" parent="1">
          <mxGeometry x="350" y="280" width="210" height="60" as="geometry" />
        </mxCell>
        <mxCell id="QBfM4OdrTJ3WQ4Gd_CfI-3" value="" style="edgeStyle=orthogonalEdgeStyle;rounded=0;orthogonalLoop=1;jettySize=auto;html=1;fontFamily=Times New Roman;fontSize=12;" edge="1" parent="1" source="QBfM4OdrTJ3WQ4Gd_CfI-2" target="QBfM4OdrTJ3WQ4Gd_CfI-1">
          <mxGeometry relative="1" as="geometry" />
        </mxCell>
        <mxCell id="QBfM4OdrTJ3WQ4Gd_CfI-2" value="&lt;div style=&quot;color: rgb(0, 0, 0); background-color: rgb(255, 255, 254); font-size: 12px;&quot;&gt;&lt;div style=&quot;font-size: 12px;&quot;&gt;&lt;span style=&quot;color: rgb(163, 21, 21); font-size: 12px;&quot;&gt;vgds.dwd_autolabel_road_info_temp&lt;/span&gt;&lt;/div&gt;&lt;/div&gt;" style="rounded=0;whiteSpace=wrap;html=1;fontFamily=Times New Roman;fontSize=12;" vertex="1" parent="1">
          <mxGeometry x="350" y="180" width="210" height="60" as="geometry" />
        </mxCell>
        <mxCell id="QBfM4OdrTJ3WQ4Gd_CfI-8" style="edgeStyle=orthogonalEdgeStyle;rounded=0;orthogonalLoop=1;jettySize=auto;html=1;exitX=0.5;exitY=1;exitDx=0;exitDy=0;fontFamily=Times New Roman;fontSize=12;" edge="1" parent="1" source="QBfM4OdrTJ3WQ4Gd_CfI-4" target="QBfM4OdrTJ3WQ4Gd_CfI-5">
          <mxGeometry relative="1" as="geometry" />
        </mxCell>
        <mxCell id="QBfM4OdrTJ3WQ4Gd_CfI-9" style="edgeStyle=orthogonalEdgeStyle;rounded=0;orthogonalLoop=1;jettySize=auto;html=1;exitX=0.5;exitY=1;exitDx=0;exitDy=0;entryX=0.5;entryY=0;entryDx=0;entryDy=0;fontFamily=Times New Roman;fontSize=12;" edge="1" parent="1" source="QBfM4OdrTJ3WQ4Gd_CfI-4" target="QBfM4OdrTJ3WQ4Gd_CfI-6">
          <mxGeometry relative="1" as="geometry" />
        </mxCell>
        <mxCell id="QBfM4OdrTJ3WQ4Gd_CfI-4" value="vgds.app_ds_autolabel_road_info" style="rounded=0;whiteSpace=wrap;html=1;fontFamily=Times New Roman;fontSize=12;" vertex="1" parent="1">
          <mxGeometry x="350" y="400" width="210" height="60" as="geometry" />
        </mxCell>
        <mxCell id="QBfM4OdrTJ3WQ4Gd_CfI-5" value="vgds.app_ds_trip_trafficflow_info" style="rounded=0;whiteSpace=wrap;html=1;fontFamily=Times New Roman;fontSize=12;" vertex="1" parent="1">
          <mxGeometry x="190" y="524.5" width="210" height="60" as="geometry" />
        </mxCell>
        <mxCell id="QBfM4OdrTJ3WQ4Gd_CfI-6" value="vgds.app_ds_his_traffic_data" style="rounded=0;whiteSpace=wrap;html=1;fontFamily=Times New Roman;fontSize=12;" vertex="1" parent="1">
          <mxGeometry x="500" y="524.5" width="210" height="60" as="geometry" />
        </mxCell>
      </root>
    </mxGraphModel>
  </diagram>
</mxfile>
